<?xml version="1.0" encoding="UTF-8"?>
<svg width="30px" height="16px" viewBox="0 0 30 16" version="1.1" xmlns="http://www.w3.org/2000/svg" xmlns:xlink="http://www.w3.org/1999/xlink">
    <!-- Generator: Sketch 53 (72520) - https://sketchapp.com -->
    <title>c#-logo</title>
    <desc>Created with Sketch.</desc>
    <g id="Page-1" stroke="none" stroke-width="1" fill="none" fill-rule="evenodd">
        <g id="Desktop-HD---Skills" transform="translate(-231.000000, -483.000000)">
            <g id="Development" transform="translate(206.000000, 337.000000)">
                <g id="C#" transform="translate(16.000000, 130.000000)">
                    <g id="c#-logo" transform="translate(9.000000, 16.000000)">
                        <g id="c-logo">
                            <path d="M13.7098275,13.6414569 C12.2558722,14.9136869 10.3985942,15.6145176 8.4801278,15.6145176 C4.16948243,15.6145176 0.66256869,12.1793738 0.66256869,7.95690735 C0.66256869,3.74410224 4.16948243,0.316932907 8.4801278,0.316932907 C10.4012013,0.316932907 12.2521917,1.01162939 13.6921917,2.2731246 C14.2861342,2.79345687 14.3457891,3.69671565 13.8253035,4.29065815 C13.3051246,4.88475399 12.4017125,4.94471565 11.80777,4.42392332 C10.8896358,3.61957827 9.70773163,3.17638339 8.4801278,3.17638339 C5.74627476,3.17638339 3.52217252,5.32089457 3.52217252,7.95690735 C3.52217252,10.6024281 5.74627476,12.7547604 8.4801278,12.7547604 C9.70558466,12.7547604 10.8940831,12.305278 11.8266326,11.489278 C12.4208818,10.9692524 13.3241406,11.0295208 13.8443195,11.62377 C14.364345,12.2181725 14.3040767,13.1214313 13.7098275,13.6414569 Z M27.8388498,8.8873099 C28.6286262,8.8873099 29.2687284,9.52741214 29.2687284,10.3170351 C29.2687284,11.1066581 28.6286262,11.7467604 27.8388498,11.7467604 L26.1720383,11.7467604 L25.6540064,14.0323578 C25.5035655,14.6960767 24.9139169,15.1464792 24.2607796,15.1464792 C24.1560383,15.1464792 24.0497636,15.1349776 23.9434888,15.110901 C23.1733419,14.93623 22.6905815,14.1705304 22.865099,13.4005367 L23.2398978,11.7469137 L20.1419808,11.7469137 L19.6239489,14.0325112 C19.473508,14.69623 18.8838594,15.1466326 18.2308754,15.1466326 C18.1261342,15.1466326 18.0198594,15.135131 17.9135847,15.1110543 C17.1434377,14.9363834 16.6606773,14.1706837 16.8351949,13.4006901 L17.210607,11.7446134 C16.4427604,11.71977 15.8275016,11.091016 15.8275016,10.3171885 C15.8275016,9.5275655 16.4676038,8.88746326 17.2573802,8.88746326 L17.8580703,8.88746326 L18.2759617,7.04414058 L17.2573802,7.04414058 C16.4677572,7.04414058 15.8275016,6.40403834 15.8275016,5.61456869 C15.8275016,4.82479233 16.4676038,4.1846901 17.2573802,4.1846901 L18.9241917,4.1846901 L19.4422236,1.89909265 C19.6167412,1.12909904 20.382901,0.646185304 21.1527412,0.820702875 C21.9228882,0.995373802 22.4056486,1.76107348 22.231131,2.53106709 L21.8563323,4.1846901 L24.9542492,4.1846901 L25.4722812,1.89909265 C25.6467987,1.12909904 26.4128051,0.646185304 27.1827987,0.820702875 C27.9529457,0.995373802 28.4357061,1.76107348 28.2611885,2.53106709 L27.8857764,4.18714377 C28.653623,4.21198722 29.2688818,4.84074121 29.2688818,5.61472204 C29.2688818,6.40419169 28.6287796,7.04429393 27.8390032,7.04429393 L27.2383131,7.04429393 L26.8204217,8.88761661 L27.8388498,8.88761661 L27.8388498,8.8873099 Z" id="Shape" fill="#FFFFFF" fill-rule="nonzero"></path>
                            <polygon id="Path" fill="var(--primary-dark, gray)" points="20.7903642 8.8873099 23.8881278 8.8873099 24.3060192 7.04414058 21.2081022 7.04414058"></polygon>
                        </g>
                    </g>
                </g>
            </g>
        </g>
    </g>
</svg>