<?xml version="1.0" encoding="UTF-8"?>
<svg width="24px" height="24px" viewBox="0 0 24 24" version="1.1" xmlns="http://www.w3.org/2000/svg" xmlns:xlink="http://www.w3.org/1999/xlink">
    <!-- Generator: Sketch 53 (72520) - https://sketchapp.com -->
    <title>clock-regular</title>
    <desc>Created with Sketch.</desc>
    <g id="Page-1" stroke="none" stroke-width="1" fill="none" fill-rule="evenodd">
        <g id="Desktop-HD---Experience" transform="translate(-352.000000, -380.000000)" fill="#000000" fill-rule="nonzero">
            <g id="Exini" transform="translate(351.000000, 350.000000)">
                <g id="clock-regular" transform="translate(1.000000, 30.000000)">
                    <path d="M12,0 C5.37096774,0 0,5.37096774 0,12 C0,18.6290323 5.37096774,24 12,24 C18.6290323,24 24,18.6290323 24,12 C24,5.37096774 18.6290323,0 12,0 Z M12,21.6774194 C6.65322581,21.6774194 2.32258065,17.3467742 2.32258065,12 C2.32258065,6.65322581 6.65322581,2.32258065 12,2.32258065 C17.3467742,2.32258065 21.6774194,6.65322581 21.6774194,12 C21.6774194,17.3467742 17.3467742,21.6774194 12,21.6774194 Z M14.9903226,16.6258065 L10.8822581,13.6403226 C10.7322581,13.5290323 10.6451613,13.3548387 10.6451613,13.1709677 L10.6451613,5.22580645 C10.6451613,4.90645161 10.9064516,4.64516129 11.2258065,4.64516129 L12.7741935,4.64516129 C13.0935484,4.64516129 13.3548387,4.90645161 13.3548387,5.22580645 L13.3548387,12.0822581 L16.5870968,14.433871 C16.8483871,14.6225806 16.9016129,14.9854839 16.7129032,15.2467742 L15.8032258,16.5 C15.6145161,16.7564516 15.2516129,16.8145161 14.9903226,16.6258065 Z" id="Shape"></path>
                </g>
            </g>
        </g>
    </g>
</svg>