<?xml version="1.0" encoding="UTF-8"?>
<svg width="30px" height="29px" viewBox="0 0 30 29" version="1.1" xmlns="http://www.w3.org/2000/svg" xmlns:xlink="http://www.w3.org/1999/xlink">
    <!-- Generator: Sketch 53 (72520) - https://sketchapp.com -->
    <title>cordova</title>
    <desc>Created with Sketch.</desc>
    <g id="Page-1" stroke="none" stroke-width="1" fill="none" fill-rule="evenodd">
        <g id="Desktop-HD---Skills" transform="translate(-397.000000, -480.000000)" fill="#FFFFFF">
            <g id="Development" transform="translate(206.000000, 337.000000)">
                <g id="Cordova" transform="translate(181.000000, 134.000000)">
                    <g id="cordova" transform="translate(10.000000, 9.000000)">
                        <g id="cordova-seeklogo.com">
                            <path d="M27.2727273,28.9655172 L22.4147727,28.9655172 L22.7556818,24.8275862 L20.3693182,24.8275862 L20.0284091,28.9655172 L9.97159091,28.9655172 L9.63068182,24.8275862 L7.24431818,24.8275862 L7.58522727,28.9655172 L2.72727273,28.9655172 L0,11.0344828 L6.81818182,0 L23.1818182,0 L30,11.0344828 L27.2727273,28.9655172 Z M21.133005,5.17241379 L16.857811,5.17241379 L17.1428571,7.24137932 L11.8226602,7.24137932 L12.1077063,5.17241379 L7.83251233,5.17241379 L5.17241379,10.6896552 L6.50246306,21.7241379 L22.4630543,21.7241379 L23.7931034,10.6896552 L21.133005,5.17241379 Z M19.137931,18.6206897 C18.8522845,18.6206897 18.6206897,17.4628059 18.6206897,16.0344827 C18.6206897,14.6061596 18.8522845,13.4482759 19.137931,13.4482759 C19.4235776,13.4482759 19.6551724,14.6061596 19.6551724,16.0344827 C19.6551724,17.4628059 19.4235776,18.6206897 19.137931,18.6206897 Z M10.862069,18.6206897 C10.5764224,18.6206897 10.3448276,17.4628059 10.3448276,16.0344828 C10.3448276,14.6061596 10.5764224,13.4482759 10.862069,13.4482759 C11.1477155,13.4482759 11.3793103,14.6061596 11.3793103,16.0344828 C11.3793103,17.4628059 11.1477155,18.6206897 10.862069,18.6206897 Z" id="Shape" fill-rule="nonzero"></path>
                        </g>
                    </g>
                </g>
            </g>
        </g>
    </g>
</svg>