<?xml version="1.0" encoding="UTF-8"?>
<svg width="29px" height="29px" viewBox="0 0 29 29" version="1.1" xmlns="http://www.w3.org/2000/svg" xmlns:xlink="http://www.w3.org/1999/xlink">
    <!-- Generator: Sketch 53 (72520) - https://sketchapp.com -->
    <title>photoshop</title>
    <desc>Created with Sketch.</desc>
    <g id="Page-1" stroke="none" stroke-width="1" fill="none" fill-rule="evenodd">
        <g id="Desktop-HD---Skills" transform="translate(-391.000000, -628.000000)">
            <g id="Design" transform="translate(206.000000, 576.000000)">
                <g id="PS" transform="translate(169.000000, 42.000000)">
                    <g id="photoshop" transform="translate(16.000000, 10.000000)">
                        <g id="Adobe_Photoshop_CC_icon">
                            <polygon id="Path" fill-opacity="0" fill="#001D26" fill-rule="nonzero" points="0.483333333 1.45 27.3083333 1.45 27.3083333 27.55 0.483333333 27.55"></polygon>
                            <path d="M0,0 L0,28.275 L29,28.275 L29,0 L0,0 Z M1.20833333,1.20833333 L27.7916667,1.20833333 L27.7916667,27.0666667 L1.20833333,27.0666667 L1.20833333,1.20833333 Z M7.00833333,6.62166667 C7.00833333,6.53708333 7.1775,6.47666667 7.27416667,6.47666667 C8.0475,6.44041667 9.19541667,6.41625 10.3916667,6.41625 C13.73875,6.41625 15.04375,8.25291667 15.04375,10.6091667 C15.04375,13.6783333 12.8204167,14.9954167 10.0895833,14.9954167 C9.63041667,14.9954167 9.47333333,14.97125 9.14708333,14.97125 L9.14708333,19.61125 C9.14708333,19.7079167 9.11083333,19.75625 9.00208333,19.75625 L7.15333333,19.75625 C7.05666667,19.75625 7.00833333,19.72 7.00833333,19.61125 L7.00833333,6.62166667 L7.00833333,6.62166667 Z M9.15916667,13.0379167 C9.43708333,13.0620833 9.65458333,13.0620833 10.1379167,13.0620833 C11.5516667,13.0620833 12.8808333,12.5666667 12.8808333,10.6454167 C12.8808333,9.11083333 11.92625,8.3375 10.3191667,8.3375 C9.83583333,8.3375 9.37666667,8.36166667 9.15916667,8.37375 L9.15916667,13.0379167 L9.15916667,13.0379167 Z M19.5508333,11.6 C18.59625,11.6 18.27,12.0833333 18.27,12.4820833 C18.27,12.9170833 18.4875,13.2191667 19.7683333,13.88375 C21.6654167,14.8020833 22.2575,15.6841667 22.2575,16.9770833 C22.2575,18.9104167 20.7833333,19.9495833 18.7895833,19.9495833 C17.7383333,19.9495833 16.8320833,19.7320833 16.3125,19.43 C16.2279167,19.39375 16.2158333,19.3333333 16.2158333,19.2366667 L16.2158333,17.4604167 C16.2158333,17.3395833 16.27625,17.3033333 16.3608333,17.36375 C17.1220833,17.8591667 17.9920833,18.0766667 18.7895833,18.0766667 C19.7441667,18.0766667 20.1429167,17.6779167 20.1429167,17.1341667 C20.1429167,16.6991667 19.865,16.3125 18.6445833,15.6841667 C16.92875,14.8625 16.2158333,14.02875 16.2158333,12.6391667 C16.2158333,11.0804167 17.43625,9.7875 19.5508333,9.7875 C20.59,9.7875 21.315,9.94458333 21.71375,10.1258333 C21.8104167,10.18625 21.8345833,10.2829167 21.8345833,10.3675 L21.8345833,12.0229167 C21.8345833,12.1195833 21.7741667,12.18 21.6533333,12.14375 C21.1216667,11.8054167 20.33625,11.6 19.5508333,11.6 L19.5508333,11.6 Z" id="Shape" fill="#FFFFFF" fill-rule="nonzero"></path>
                        </g>
                    </g>
                </g>
            </g>
        </g>
    </g>
</svg>