<?xml version="1.0" encoding="UTF-8"?>
<svg width="37px" height="18px" viewBox="0 0 37 18" version="1.1" xmlns="http://www.w3.org/2000/svg" xmlns:xlink="http://www.w3.org/1999/xlink">
    <!-- Generator: Sketch 53 (72520) - https://sketchapp.com -->
    <title>php</title>
    <desc>Created with Sketch.</desc>
    <g id="Page-1" stroke="none" stroke-width="1" fill="none" fill-rule="evenodd">
        <g id="Desktop-HD---Skills" transform="translate(-461.000000, -486.000000)" fill="#FFFFFF">
            <g id="Development" transform="translate(206.000000, 337.000000)">
                <g id="PHP" transform="translate(250.000000, 134.000000)">
                    <g id="php" transform="translate(5.000000, 15.000000)">
                        <g id="iconfinder_php_282805" transform="translate(0.000000, -0.000000)">
                            <path d="M7.2885083,5.49722119 C8.42500758,5.49722119 9.18243431,5.71331642 9.56114768,6.14558087 C9.93950188,6.57784533 10.0296546,7.31982161 9.83167776,8.37121369 C9.6248652,9.46612084 9.22661275,10.2476159 8.63627389,10.7158469 C8.04593504,11.1841519 7.14756831,11.4180084 5.94153289,11.4180084 L4.12195595,11.4180084 L5.23891615,5.49722119 L7.2885083,5.49722119 L7.2885083,5.49722119 Z M0,17.4117647 L2.99141897,17.4117647 L3.70093185,13.6505977 L6.26320938,13.6505977 C7.3938182,13.6505977 8.3238641,13.5284891 9.05399359,13.2835318 C9.78419491,13.0389446 10.4477335,12.6287337 11.0450403,12.0528251 C11.546304,11.5780817 11.9518836,11.0544948 12.2624975,10.4819164 C12.5727522,9.9097821 12.7932134,9.27807359 12.9235219,8.58730892 C13.2400262,6.91035076 13.0011753,5.60415872 12.2076875,4.66836279 C11.4141997,3.73256685 10.1518457,3.26470588 8.421344,3.26470588 L2.66895229,3.26470588 L0,17.4117647 Z" id="Shape" fill-rule="nonzero"></path>
                            <path d="M15.7918531,0 L18.8308085,0 L18.1042073,3.76116702 L20.8115653,3.76116702 C22.5149368,3.76116702 23.6900181,4.06029609 24.3367358,4.6578882 C24.98338,5.25585034 25.1771305,6.22457859 24.9185758,7.56377696 L23.6470605,14.1470588 L20.5598515,14.1470588 L21.7688429,7.88754977 C21.9063954,7.17547159 21.855935,6.68977537 21.6170201,6.43083113 C21.3781053,6.17181288 20.8697493,6.04222974 20.0922463,6.04222974 L17.6633771,6.04222974 L16.0978524,14.1469848 L13.0588235,14.1470588 L15.7918531,0 Z" id="Path" fill-rule="nonzero"></path>
                            <path d="M31.229646,5.49722119 C32.3661505,5.49722119 33.1235807,5.71331642 33.5022957,6.14558087 C33.8807953,6.57784533 33.9708767,7.31982161 33.7728271,8.37121369 C33.5660136,9.46612084 33.167903,10.2476159 32.5774178,10.7158469 C31.9870762,11.1841519 31.0887054,11.4180084 29.8826645,11.4180084 L28.0631511,11.4180084 L29.1801164,5.49722119 L31.229646,5.49722119 L31.229646,5.49722119 Z M23.9411765,17.4117647 L26.932609,17.4117647 L27.6420533,13.6505977 L30.2043425,13.6505977 C31.3349564,13.6505977 32.2650065,13.5284891 32.9952112,13.2835318 C33.725344,13.0389446 34.3888856,12.6287337 34.986267,12.0528251 C35.4876047,11.5780817 35.8931143,11.0544948 36.2037297,10.4819164 C36.513914,9.9097821 36.734448,9.27807359 36.8646852,8.58730892 C37.181191,6.91035076 36.9424109,5.60415872 36.1488476,4.66836279 C35.3553561,3.73256685 34.0929965,3.26470588 32.3624869,3.26470588 L26.6102127,3.26470588 L23.9411765,17.4117647 Z" id="Shape" fill-rule="nonzero"></path>
                        </g>
                    </g>
                </g>
            </g>
        </g>
    </g>
</svg>