<?xml version="1.0" encoding="UTF-8"?>
<svg width="28px" height="32px" viewBox="0 0 28 32" version="1.1" xmlns="http://www.w3.org/2000/svg" xmlns:xlink="http://www.w3.org/1999/xlink">
    <!-- Generator: Sketch 53 (72520) - https://sketchapp.com -->
    <title>webpack</title>
    <desc>Created with Sketch.</desc>
    <g id="Page-1" stroke="none" stroke-width="1" fill="none" fill-rule="evenodd">
        <g id="Desktop-HD---Skills" transform="translate(-519.000000, -638.000000)">
            <g id="webpack" transform="translate(519.000000, 638.000000)">
                <g id="webpack-seeklogo.com">
                    <polygon id="Path" fill="#FFFFFF" fill-rule="nonzero" points="14 0 28 7.998666 28 24.001334 14 32 0 24.001334 0 7.998666"></polygon>
                    <path d="M26.2308521,23.8050814 L14.9948365,30 L14.9948365,25.1823119 L21.9978486,21.4276571 L26.2308521,23.8050814 Z M27,23.1295578 L27,10.1846392 L22.8907057,12.4939876 L22.8907057,20.8202094 L27,23.1295578 Z M2.76914803,23.8050814 L14.0051635,29.9947634 L14.0051635,25.1770752 L7.00215148,21.4276571 L2.76914803,23.8050814 L2.76914803,23.8050814 Z M2,23.1295578 L2,10.1846392 L6.10929434,12.4939876 L6.10929434,20.8202094 L2,23.1295578 L2,23.1295578 Z M2.47870053,9.34678044 L14.0051635,3 L14.0051635,7.6605896 L6.62026679,11.6142358 L6.56110156,11.6456555 L2.47870053,9.34678044 L2.47870053,9.34678044 Z M26.5159209,9.34678044 L14.9948365,3 L14.9948365,7.6605896 L22.3743546,11.6194724 L22.4335198,11.6508921 L26.5159209,9.34678044 L26.5159209,9.34678044 Z" id="Shape" fill="#363636" fill-rule="nonzero"></path>
                    <path d="M13.5319767,24 L7,20.2002015 L7,12.6812227 L13.5319767,16.6637555 L13.5319767,24 L13.5319767,24 Z M14.4680232,24 L21,20.2055761 L21,12.6812227 L14.4680232,16.6637555 L14.4680232,24 Z M7.4375,11.8105475 L13.9999999,8 L20.5574128,11.8105475 L13.9999999,15.8092039 L7.4375,11.8105475 L7.4375,11.8105475 Z" id="Shape" fill="#4B4A4A" fill-rule="nonzero"></path>
                </g>
            </g>
        </g>
    </g>
</svg>